<svg xmlns="http://www.w3.org/2000/svg" width="270.68" height="270.677" viewBox="0 0 270.68 270.677">
  <g id="Group_8" data-name="Group 8" transform="translate(-63.921 -327.662)">
    <path id="Path_26" data-name="Path 26" d="M270.68,135.345A135.34,135.34,0,1,0,135.342,270.68,135.337,135.337,0,0,0,270.68,135.345Z" transform="translate(63.921 327.659)" fill="rgba(128,128,144,0.6)"/>
    <path id="Path_27" data-name="Path 27" d="M138.216,131.853q0-11.387,7.312-23.075t21.337-19.359q14.025-7.67,32.725-7.672,17.38,0,30.687,6.413T250.835,105.6a42.786,42.786,0,0,1,7.252,23.974,37.065,37.065,0,0,1-4.136,17.861,54.67,54.67,0,0,1-9.83,13.245q-5.695,5.574-20.438,18.76a83.092,83.092,0,0,0-6.533,6.534,26.5,26.5,0,0,0-3.656,5.154,25.154,25.154,0,0,0-1.858,4.675q-.66,2.336-1.978,8.211-2.278,12.468-14.265,12.467a14.577,14.577,0,0,1-10.489-4.076q-4.256-4.074-4.255-12.107a42.5,42.5,0,0,1,11.388-30.387,189.444,189.444,0,0,1,13.905-13.246q7.67-6.712,11.088-10.129a34.354,34.354,0,0,0,5.754-7.612,18.408,18.408,0,0,0,2.338-9.11,21.188,21.188,0,0,0-7.133-16.183q-7.133-6.591-18.4-6.593-13.188,0-19.419,6.653t-10.549,19.6q-4.076,13.547-15.464,13.546A15.2,15.2,0,0,1,142.83,142.1Q138.216,137.368,138.216,131.853Zm58.5,131.38a18.865,18.865,0,0,1-12.766-4.735q-5.456-4.733-5.454-13.245a17.062,17.062,0,0,1,5.274-12.706,17.814,17.814,0,0,1,12.946-5.154,17.6,17.6,0,0,1,17.861,17.861q0,8.392-5.394,13.186A18.2,18.2,0,0,1,196.713,263.233Z" transform="translate(1.109 290.51)" fill="#fff"/>
  </g>
</svg>
