<svg xmlns="http://www.w3.org/2000/svg" width="388.414" height="512.001" viewBox="0 0 388.414 512.001">
  <g id="Group_7" data-name="Group 7" transform="translate(-11.793 -245)">
    <g id="trophy-svgrepo-com_1_" data-name="trophy-svgrepo-com (1)" transform="translate(-50.001 245.001)">
      <path id="Path_1" data-name="Path 1" d="M212.666,194.207A125.1,125.1,0,0,1,88.877,89.328l-.285-1.689a22.046,22.046,0,0,1,4.9-18.173,21.688,21.688,0,0,1,16.6-7.672h53.164V35.31H110.093a48.134,48.134,0,0,0-36.8,17.035A48.807,48.807,0,0,0,62.472,92.008l.285,1.681a151.486,151.486,0,0,0,149.906,127h.022V194.206Z" fill="#ebb45f"/>
      <g id="Group_1" data-name="Group 1">
        <path id="Path_2" data-name="Path 2" d="M438.71,52.345a48.134,48.134,0,0,0-36.8-17.035H348.744V61.793h53.164a21.685,21.685,0,0,1,16.6,7.672,22.045,22.045,0,0,1,4.9,18.173l-.285,1.689A125.1,125.1,0,0,1,299.335,194.206h-.018v26.483h.018a151.486,151.486,0,0,0,149.909-127l.285-1.681A48.808,48.808,0,0,0,438.71,52.345Z" fill="#ffc36e"/>
        <path id="Path_3" data-name="Path 3" d="M282.483,414.9H229.518l8.827-185.38h35.311Z" fill="#ffc36e"/>
      </g>
      <path id="Path_4" data-name="Path 4" d="M238.345,229.517,229.518,414.9H256V229.517Z" fill="#ebb45f"/>
      <path id="Path_5" data-name="Path 5" d="M308.966,450.207H203.035V414.9a8.829,8.829,0,0,1,8.828-8.828h88.276a8.829,8.829,0,0,1,8.828,8.828v35.31Z" fill="#ffd782"/>
      <path id="Path_6" data-name="Path 6" d="M256,406.069H211.862a8.829,8.829,0,0,0-8.828,8.828v35.31h44.138V414.9A8.829,8.829,0,0,1,256,406.069Z" fill="#ffc36e"/>
      <path id="Path_7" data-name="Path 7" d="M344.276,467.862H167.724l12.414-18.621a17.656,17.656,0,0,1,14.69-7.862H317.172a17.658,17.658,0,0,1,14.69,7.862Z" fill="#9b5a50"/>
      <path id="Path_8" data-name="Path 8" d="M247.794,441.379H194.828a17.655,17.655,0,0,0-14.69,7.862l-12.414,18.621H220.69L233.1,449.241A17.655,17.655,0,0,1,247.794,441.379Z" fill="#874641"/>
      <path id="Path_9" data-name="Path 9" d="M344.276,512H167.724a8.829,8.829,0,0,1-8.828-8.828v-35.31a8.829,8.829,0,0,1,8.828-8.828H344.276a8.829,8.829,0,0,1,8.828,8.828v35.31A8.829,8.829,0,0,1,344.276,512Z" fill="#aa6455"/>
      <path id="Path_10" data-name="Path 10" d="M220.69,503.172v-35.31a8.829,8.829,0,0,1,8.828-8.828H167.725a8.829,8.829,0,0,0-8.828,8.828v35.31A8.829,8.829,0,0,0,167.725,512h61.793A8.829,8.829,0,0,1,220.69,503.172Z" fill="#9b5a50"/>
      <path id="Path_11" data-name="Path 11" d="M326.339,204.235l-39.073,30.39a17.659,17.659,0,0,1-10.839,3.719H235.576a17.655,17.655,0,0,1-10.839-3.719l-39.073-30.39a105.928,105.928,0,0,1-40.313-72.527L132.414,8.828H379.586l-12.935,122.88A105.928,105.928,0,0,1,326.339,204.235Z" fill="#ffd782"/>
      <path id="Path_12" data-name="Path 12" d="M254.726,234.625l-18.141-30.39c-10.559-17.688-17.316-43.875-18.717-72.529L211.862,8.828H132.414l12.935,122.88a105.938,105.938,0,0,0,40.313,72.529l39.073,30.39a17.654,17.654,0,0,0,10.839,3.72h24.183C257.936,238.345,256.165,237.036,254.726,234.625Z" fill="#ffc36e"/>
      <g id="Group_2" data-name="Group 2">
        <path id="Path_13" data-name="Path 13" d="M379.587,17.655H132.414a8.829,8.829,0,0,1-8.828-8.828h0A8.829,8.829,0,0,1,132.414,0H379.586a8.829,8.829,0,0,1,8.828,8.828h0A8.827,8.827,0,0,1,379.587,17.655Z" fill="#ffd782"/>
        <path id="Path_14" data-name="Path 14" d="M282.483,300.138H229.517a8.829,8.829,0,0,1-8.828-8.828v-8.828a8.829,8.829,0,0,1,8.828-8.828h52.966a8.829,8.829,0,0,1,8.828,8.828v8.828A8.829,8.829,0,0,1,282.483,300.138Z" fill="#ffd782"/>
      </g>
      <g id="Group_3" data-name="Group 3">
        <path id="Path_15" data-name="Path 15" d="M247.173,291.31v-8.828A8.829,8.829,0,0,1,256,273.654H229.518a8.829,8.829,0,0,0-8.828,8.828v8.828a8.829,8.829,0,0,0,8.828,8.828H256A8.828,8.828,0,0,1,247.173,291.31Z" fill="#ffc36e"/>
        <path id="Path_16" data-name="Path 16" d="M376.8,35.31l1.858-17.655H133.343L135.2,35.31Z" fill="#ffc36e"/>
      </g>
      <path id="Path_17" data-name="Path 17" d="M212.294,17.655H133.343L135.2,35.31h77.956Z" fill="#ebb45f"/>
      <path id="Path_18" data-name="Path 18" d="M203.035,8.828A8.829,8.829,0,0,1,211.863,0H132.415a8.828,8.828,0,1,0,0,17.656h79.448A8.829,8.829,0,0,1,203.035,8.828Z" fill="#ffc36e"/>
      <g id="Group_4" data-name="Group 4">
        <path id="Path_19" data-name="Path 19" d="M361.475,44.658a35.362,35.362,0,0,1-26.546-26.546.9.9,0,0,0-1.766,0,35.362,35.362,0,0,1-26.546,26.546.9.9,0,0,0,0,1.766A35.362,35.362,0,0,1,333.163,72.97a.9.9,0,0,0,1.766,0,35.362,35.362,0,0,1,26.546-26.546A.9.9,0,0,0,361.475,44.658Z" fill="#fff"/>
        <path id="Path_20" data-name="Path 20" d="M322.83,84.564a26.531,26.531,0,0,1-18.979-18.979.859.859,0,0,0-1.688,0,26.531,26.531,0,0,1-18.979,18.979.859.859,0,0,0,0,1.688,26.53,26.53,0,0,1,18.979,18.979.859.859,0,0,0,1.688,0A26.528,26.528,0,0,1,322.83,86.252.859.859,0,0,0,322.83,84.564Z" fill="#fff"/>
      </g>
    </g>
  </g>
</svg>
